<?xml version="1.0" encoding="utf-8"?>
<!-- Generator: Adobe Illustrator 25.2.0, SVG Export Plug-In . SVG Version: 6.00 Build 0)  -->
<svg version="1.1" id="Layer_1" xmlns="http://www.w3.org/2000/svg" xmlns:xlink="http://www.w3.org/1999/xlink" x="0px" y="0px"
	 viewBox="0 0 1500 1500" style="enable-background:new 0 0 1500 1500;" xml:space="preserve">
<style type="text/css">
	.st0{fill:#51C4FE;}
</style>
<g>
	<g>
		<path class="st0" d="M330.7,8.9"/>
	</g>
	<g>
		<path class="st0" d="M258.7,926.8c1-387,405.9-584.4,728-431.3c161,76.5,275.6,253.4,267.7,414c-4.5,92-58.9,156.6-147.2,174.8
			c-86,17.7-173.2-21.2-209-96.4c-10.1-21.2-13.7-46.2-16.7-69.9c-9.5-75.6-60.4-120.7-134.4-117c-71.5,3.5-120.9,57.6-115.2,134.9
			c12.5,167.3,104.9,277.4,255.4,343.2c10.4,4.5,23.1,5.9,31.3,12.8c15.4,13.1,28.3,29.2,42.3,44c-21.6,4.2-46.5,17.7-64.3,11.3
			c-163.3-58.2-276.2-165.8-316.3-339.4c-6.1-26.6-10.1-54.5-9.7-81.7c1.5-106.4,73.1-181.1,173.9-184.3
			c108.9-3.5,186.4,64.9,195.6,172.8c6.4,75.1,56.5,118.4,133.5,115.6c72-2.7,115.4-48,116.7-121.7c3-171-130.5-335.4-310.8-383.5
			c-107-28.5-211.9-25.7-313.7,20.6c-198.5,90.2-281.9,273.2-230.9,505.9c5.2,23.7,15.2,46.6,17.9,70.5c1.6,14.7-6.6,30.5-10.4,45.8
			c-13-9.2-34.7-16.1-37.6-27.8C287,1069.1,273.6,997.8,258.7,926.8z"/>
		<path class="st0" d="M471.8,959.9c2.6,96.7,50.5,198.9,126.7,289.7c10.4,12.4,25.4,22.4,31.7,36.5c6.4,14.3,4.8,32.3,6.6,48.7
			c-16.9-3.1-41.6-0.1-49.3-10.1c-45.9-60.2-100.1-118.5-127.8-187.1c-29.5-73-45.8-156.8-44.4-235.5
			c3-172.8,149.3-306.4,324.2-311.6C921.6,585,1068.3,705.1,1092,879c0.9,6.4,4.4,14.4,1.8,19c-8.9,16.3-19.9,31.6-30.1,47.2
			c-11.8-13.9-32.4-26.8-34-41.8C1014.3,759.1,908,657.8,761.3,651.4C598.7,644.4,469.7,771,471.8,959.9z"/>
		<path class="st0" d="M798.1,298.6c161.7,2.1,334.3,79.7,467,241.8c9.2,11.2,21.2,22.8,23.8,35.9c2.3,11.6-3.3,28.8-11.8,37
			c-5.1,4.9-23.3-0.3-33.6-5.2c-7.9-3.8-12.7-14.2-18.9-21.7c-251.9-306.2-696.1-305-946.7,1.5c-11.2,13.7-42.6,28.5-52.2,22.7
			c-31.3-19.1-6.4-41.9,7.1-60.4C345.6,396.2,548.4,298.2,798.1,298.6z"/>
		<path class="st0" d="M1136.9,263.6c-10.9,33.5-25.6,38.3-53.9,28.5c-76.1-26.5-152.1-56.8-230.8-71.1
			c-142.6-26.1-280.1-0.2-410.9,63.5c-15.9,7.8-50.4,8.6-56.5-0.5c-19.7-29.6,10.3-41.8,31.2-51.9c230-111.7,459.9-103.8,688.9,3.2
			C1117.9,241.3,1127.4,254.9,1136.9,263.6z"/>
		<path class="st0" d="M1056.6,1228.4c-184.7,0.8-318-117.1-333.4-287.2c-1.6-17.7,11.2-49.4,23.6-53c31.9-9.3,31.7,20.6,35.2,43.3
			c23.7,156.5,127.9,241.9,286.3,235.4c16.2-0.7,33.4-5.2,48.2-1.1c11.3,3.1,26.8,16.5,27.4,26.1c0.6,10.1-12.6,28-22.7,30.4
			C1096.4,1228.3,1069.9,1227.4,1056.6,1228.4z"/>
	</g>
</g>
</svg>
