<svg id="e8rzo2551e6t1" xmlns="http://www.w3.org/2000/svg" xmlns:xlink="http://www.w3.org/1999/xlink" viewBox="0 0 1500 1500" shape-rendering="geometricPrecision" text-rendering="geometricPrecision"><style><![CDATA[#e8rzo2551e6t6 {animation: e8rzo2551e6t6_c_o 3000ms linear 1 normal forwards}@keyframes e8rzo2551e6t6_c_o { 0% {opacity: 0} 100% {opacity: 1} }#e8rzo2551e6t14_to {animation: e8rzo2551e6t14_to__to 3000ms linear 1 normal forwards}@keyframes e8rzo2551e6t14_to__to { 0% {transform: translate(750.000031px,80px)} 100% {transform: translate(750.000031px,1460.939525px)} }]]></style><g id="e8rzo2551e6t2"><g id="e8rzo2551e6t3"><path id="e8rzo2551e6t4" d="" fill="rgb(81,196,254)" stroke="none" stroke-width="1"/></g><g id="e8rzo2551e6t5"><g id="e8rzo2551e6t6" opacity="0"><path id="e8rzo2551e6t7" d="M258.700000,997.900000C259.700000,610.900000,664.600000,413.500000,986.700000,566.600000C1147.700000,643.100000,1262.300000,820,1254.400000,980.600000C1249.900000,1072.600000,1195.500000,1137.200000,1107.200000,1155.400000C1021.200000,1173.100000,934,1134.200000,898.200000,1059C888.100000,1037.800000,884.500000,1012.800000,881.500000,989.100000C872,913.500000,821.100000,868.400000,747.100000,872.100000C675.600000,875.600000,626.200000,929.700000,631.900000,1007C644.400000,1174.300000,736.800000,1284.400000,887.300000,1350.200000C897.700000,1354.700000,910.400000,1356.100000,918.600000,1363C934,1376.100000,946.900000,1392.200000,960.900000,1407C939.300000,1411.200000,914.400000,1424.700000,896.600000,1418.300000C733.300000,1360.100000,620.400000,1252.500000,580.300000,1078.900000C574.200000,1052.300000,570.200000,1024.400000,570.600000,997.200000C572.100000,890.800000,643.700000,816.100000,744.500000,812.900000C853.400000,809.400000,930.900000,877.800000,940.100000,985.700000C946.500000,1060.800000,996.600000,1104.100000,1073.600000,1101.300000C1145.600000,1098.600000,1189,1053.300000,1190.300000,979.600000C1193.300000,808.600000,1059.800000,644.200000,879.500000,596.100000C772.500000,567.600000,667.600000,570.400000,565.800000,616.700000C367.300000,706.900000,283.900000,889.900000,334.900000,1122.600000C340.100000,1146.300000,350.100000,1169.200000,352.800000,1193.100000C354.400000,1207.800000,346.200000,1223.600000,342.400000,1238.900000C329.400000,1229.700000,307.700000,1222.800000,304.800000,1211.100000C287,1140.200000,273.600000,1068.900000,258.700000,997.900000Z" fill="rgb(81,196,254)" stroke="none" stroke-width="1"/><path id="e8rzo2551e6t8" d="M471.800000,1031C474.400000,1127.700000,522.300000,1229.900000,598.500000,1320.700000C608.900000,1333.100000,623.900000,1343.100000,630.200000,1357.200000C636.600000,1371.500000,635,1389.500000,636.800000,1405.900000C619.900000,1402.800000,595.200000,1405.800000,587.500000,1395.800000C541.600000,1335.600000,487.400000,1277.300000,459.700000,1208.700000C430.200000,1135.700000,413.900000,1051.900000,415.300000,973.200000C418.300000,800.400000,564.600000,666.800000,739.500000,661.600000C921.600000,656.100000,1068.300000,776.200000,1092,950.100000C1092.900000,956.500000,1096.400000,964.500000,1093.800000,969.100000C1084.900000,985.400000,1073.900000,1000.700000,1063.700000,1016.300000C1051.900000,1002.400000,1031.300000,989.500000,1029.700000,974.500000C1014.300000,830.200000,908,728.900000,761.300000,722.500000C598.700000,715.500000,469.700000,842.100000,471.800000,1031Z" fill="rgb(81,196,254)" stroke="none" stroke-width="1"/><path id="e8rzo2551e6t9" d="M798.100000,369.700000C959.800000,371.800000,1132.400000,449.400000,1265.100000,611.500000C1274.300000,622.700000,1286.300000,634.300000,1288.900000,647.400000C1291.200000,659,1285.600000,676.200000,1277.100000,684.400000C1272,689.300000,1253.800000,684.100000,1243.500000,679.200000C1235.600000,675.400000,1230.800000,665,1224.600000,657.500000C972.700000,351.300000,528.500000,352.500000,277.900000,659C266.700000,672.700000,235.300000,687.500000,225.700000,681.700000C194.400000,662.600000,219.300000,639.800000,232.800000,621.300000C345.600000,467.300000,548.400000,369.300000,798.100000,369.700000Z" fill="rgb(81,196,254)" stroke="none" stroke-width="1"/><path id="e8rzo2551e6t10" d="M1136.900000,334.700000C1126,368.200000,1111.300000,373,1083,363.200000C1006.900000,336.700000,930.900000,306.400000,852.200000,292.100000C709.600000,266,572.100000,291.900000,441.300000,355.600000C425.400000,363.400000,390.900000,364.200000,384.800000,355.100000C365.100000,325.500000,395.100000,313.300000,416,303.200000C646,191.500000,875.900000,199.400000,1104.900000,306.400000C1117.900000,312.400000,1127.400000,326,1136.900000,334.700000Z" fill="rgb(81,196,254)" stroke="none" stroke-width="1"/><path id="e8rzo2551e6t11" d="M1056.600000,1299.500000C871.900000,1300.300000,738.600000,1182.400000,723.200000,1012.300000C721.600000,994.600000,734.400000,962.900000,746.800000,959.300000C778.700000,950,778.500000,979.900000,782,1002.600000C805.700000,1159.100000,909.900000,1244.500000,1068.300000,1238C1084.500000,1237.300000,1101.700000,1232.800000,1116.500000,1236.900000C1127.800000,1240,1143.300000,1253.400000,1143.900000,1263C1144.500000,1273.100000,1131.300000,1291,1121.200000,1293.400000C1096.400000,1299.400000,1069.900000,1298.500000,1056.600000,1299.500000Z" fill="rgb(81,196,254)" stroke="none" stroke-width="1"/></g></g></g><g id="e8rzo2551e6t12"><g id="e8rzo2551e6t13"><g id="e8rzo2551e6t14_to" transform="translate(750.000031,80)"><line id="e8rzo2551e6t14" x1="183.100000" y1="80" x2="1316.900000" y2="80" transform="translate(-750.000031,-80)" fill="none" stroke="rgb(81,196,254)" stroke-width="15" stroke-miterlimit="10"/></g></g></g></svg>