<?xml version="1.0" encoding="utf-8"?>
<!-- Generator: Adobe Illustrator 25.2.0, SVG Export Plug-In . SVG Version: 6.00 Build 0)  -->
<svg version="1.1" id="Layer_1" xmlns="http://www.w3.org/2000/svg" xmlns:xlink="http://www.w3.org/1999/xlink" x="0px" y="0px"
	 viewBox="0 0 3000 700" style="enable-background:new 0 0 3000 700;" xml:space="preserve">
<style type="text/css">
	.st0{fill:#51C4FE;}
	.st1{fill:#030408;}
</style>
<g>
	<g>
		<g>
			<path class="st0" d="M570.79,142.04c-0.02,12.15,2.26,24.93-0.76,36.23c-2.32,8.68-11.32,15.5-17.34,23.15
				c-5.88-7.59-15.34-14.5-16.87-22.92c-2.78-15.27-2.09-31.56-0.57-47.19c2.44-24.99-6.06-36.06-31.73-33.74
				c-17.65,1.59-35.86,1.55-53.25-1.35c-6.85-1.14-12.16-12.01-18.17-18.45c6.6-5.51,12.91-15.3,19.84-15.78
				c26.01-1.79,52.39-2.48,78.3,0.05C562.2,65.17,570.81,84.13,570.79,142.04z"/>
			<path class="st0" d="M570.79,550.66c0.04,69.8-66.16,110.45-126.68,77.1c-5.72-3.15-11.8-13.97-10.58-19.6
				c1.24-5.69,11.02-12.57,17.66-13.3c17.55-1.94,35.48-1.8,53.16-0.7c22.66,1.42,33-7.05,30.9-31.32
				c-1.46-16.8-2.04-34.13,0.55-50.65c1.32-8.47,10.43-15.67,16.02-23.45c6.31,7.34,16.04,13.79,18.14,22.22
				C573.07,523.46,570.76,537.36,570.79,550.66z"/>
			<path class="st0" d="M49.38,97.69c0,30.76,1.75,55.05-0.91,78.82c-0.99,8.85-12.26,16.51-18.84,24.71
				c-5.33-8.04-11.07-15.84-15.75-24.26c-1.53-2.76-0.15-7.14-0.31-10.77C8.49,47.27,27.69,61.16,128.85,61.89
				c7.33,0.05,14.59,11.19,21.88,17.17c-7.52,6.21-14.61,16.99-22.63,17.76C103.7,99.19,78.95,97.69,49.38,97.69z"/>
			<path class="st0" d="M92.81,630.58c-71.61,0.23-106.46-57.15-77.76-128.79c2.21-5.51,12.05-13.37,14.66-12.12
				c7.46,3.58,17.28,10.55,18.46,17.54c2.79,16.52,2.88,34.05,0.85,50.76c-3.66,30.19,9.54,39.1,36.66,36.21
				c14.09-1.5,28.89-2.3,42.56,0.58c8.26,1.74,14.98,11.13,22.4,17.08c-7.41,6.24-13.98,15.57-22.43,17.97
				C117.2,632.95,104.69,630.58,92.81,630.58z"/>
		</g>
		<g>
			<path class="st0" d="M101.47,418.71c0.39-150.42,154.35-227.17,276.82-167.67c61.23,29.74,104.8,98.5,101.8,160.92
				c-1.72,35.76-22.4,60.86-55.98,67.94c-32.7,6.9-65.86-8.24-79.47-37.49c-3.84-8.25-5.22-17.97-6.36-27.19
				c-3.63-29.38-22.98-46.93-51.1-45.5c-27.18,1.38-45.99,22.4-43.79,52.43c4.76,65.03,39.9,107.84,97.1,133.4
				c3.95,1.76,8.8,2.28,11.9,4.97c5.87,5.08,10.77,11.33,16.07,17.09c-8.22,1.65-17.68,6.86-24.46,4.39
				C281.91,559.4,239,517.58,223.76,450.08c-2.33-10.34-3.83-21.18-3.68-31.76c0.59-41.35,27.79-70.39,66.14-71.66
				c41.4-1.36,70.87,25.24,74.39,67.15c2.45,29.2,21.49,46.04,50.77,44.92c27.37-1.05,43.89-18.66,44.37-47.32
				c1.13-66.46-49.64-130.4-118.19-149.09c-40.68-11.09-80.57-9.99-119.29,8c-75.48,35.07-107.21,106.2-87.81,196.67
				c1.97,9.21,5.8,18.12,6.8,27.39c0.61,5.71-2.51,11.84-3.96,17.79c-4.95-3.56-13.19-6.26-14.32-10.81
				C112.24,474.05,107.13,446.31,101.47,418.71z"/>
			<path class="st0" d="M182.49,431.59c0.98,37.57,19.19,77.34,48.19,112.61c3.97,4.82,9.66,8.72,12.05,14.18
				c2.44,5.58,1.81,12.57,2.52,18.94c-6.41-1.19-15.83-0.03-18.75-3.94c-17.45-23.42-38.07-46.08-48.6-72.72
				c-11.2-28.36-17.41-60.95-16.89-91.54c1.13-67.17,56.79-119.11,123.3-121.14c69.26-2.11,125.02,44.55,134.05,112.17
				c0.33,2.5,1.66,5.6,0.7,7.4c-3.38,6.36-7.56,12.27-11.44,18.35c-4.48-5.4-12.31-10.43-12.92-16.25
				c-5.89-56.13-46.31-95.52-102.09-97.99C230.76,308.93,181.73,358.16,182.49,431.59z"/>
			<path class="st0" d="M306.6,174.51c61.47,0.81,127.12,30.98,177.59,94c3.49,4.36,8.06,8.87,9.05,13.94
				c0.88,4.5-1.27,11.18-4.49,14.38c-1.93,1.92-8.87-0.11-12.79-2.03c-3.02-1.48-4.84-5.53-7.19-8.45
				c-95.8-119.04-264.69-118.55-360.01,0.58c-4.26,5.33-16.2,11.1-19.87,8.81c-11.89-7.42-2.45-16.3,2.7-23.48
				C134.5,212.45,211.64,174.36,306.6,174.51z"/>
			<path class="st0" d="M435.43,160.91c-4.16,13.03-9.74,14.89-20.48,11.06c-28.92-10.3-57.84-22.07-87.76-27.66
				c-54.22-10.13-106.52-0.08-156.26,24.69c-6.05,3.01-19.18,3.34-21.49-0.21c-7.49-11.5,3.92-16.24,11.85-20.18
				c87.46-43.44,174.89-40.34,261.95,1.25C428.19,152.23,431.81,157.55,435.43,160.91z"/>
			<path class="st0" d="M404.88,535.97c-70.25,0.33-120.93-45.53-126.76-111.63c-0.61-6.87,4.26-19.22,8.98-20.62
				c12.13-3.61,12.07,8.01,13.37,16.84c9,60.82,48.64,94.06,108.87,91.51c6.16-0.26,12.69-2.01,18.34-0.43
				c4.3,1.2,10.19,6.4,10.42,10.14c0.24,3.92-4.8,10.87-8.64,11.82C420.01,535.94,409.93,535.59,404.88,535.97z"/>
		</g>
	</g>
	<g>
		<path class="st0" d="M2933.81,654.84H777.7c-33.79,0-61.19-27.39-61.19-61.19v-487.3c0-33.79,27.39-61.19,61.19-61.19h2156.12
			c33.79,0,61.19,27.39,61.19,61.19v487.3C2995,627.44,2967.61,654.84,2933.81,654.84z"/>
		<g>
			<g>
				<g>
					<path class="st1" d="M936.19,215.62H921.7l-22.32-65.94l-22.56,65.94h-14.61l30.15-87.92h13.91L936.19,215.62z M907.09,187.67
						l3.39,9.68h-22.32l3.27-9.68H907.09z"/>
					<path class="st1" d="M967.4,169.75c0,6.13,0.39,11.33,1.17,15.59c0.78,4.26,1.91,7.76,3.39,10.51c1.48,2.75,3.25,4.8,5.32,6.15
						c2.06,1.36,4.38,2.15,6.95,2.39v11.83c-4.75-0.32-9.06-1.49-12.91-3.52s-7.11-4.94-9.76-8.72c-2.65-3.78-4.71-8.42-6.19-13.92
						c-1.48-5.5-2.22-11.79-2.22-18.87v-43.6h14.26V169.75z M1020.1,127.58v43.6c0,7.09-0.74,13.38-2.22,18.87
						c-1.48,5.5-3.56,10.14-6.25,13.92c-2.69,3.78-5.94,6.69-9.76,8.72c-3.82,2.03-8.1,3.2-12.86,3.52v-11.83
						c2.57-0.32,4.89-1.13,6.95-2.45c2.06-1.31,3.84-3.32,5.32-6.03c1.48-2.71,2.63-6.19,3.45-10.45c0.82-4.26,1.23-9.5,1.23-15.71
						v-42.17H1020.1z"/>
					<path class="st1" d="M1101.21,127.58v9.8h-25.71v78.25h-14.14v-78.25h-25.71v-9.8H1101.21z"/>
					<path class="st1" d="M1118.15,127.58h14.26v88.04h-14.26V127.58z M1183.72,127.58v88.04h-14.02v-39.66h-32.49v-9.8h32.49
						v-38.59H1183.72z"/>
					<path class="st1" d="M1205.8,127.58h14.26v88.04h-14.26V127.58z M1259.68,127.58v10.87h-34.83v-10.87H1259.68z M1256.06,175.96
						h-31.2v-9.8h31.2V175.96z M1224.85,204.75h34.83v10.87h-34.83V204.75z"/>
					<path class="st1" d="M1278.84,215.62v-88.04h14.26v88.04H1278.84z M1326.88,127.58h14.26v88.04h-14.26l-28.98-52.08v-27.48
						l28.98,52.2V127.58z"/>
					<path class="st1" d="M1423.29,127.58v9.8h-25.71v78.25h-14.14v-78.25h-25.71v-9.8H1423.29z"/>
					<path class="st1" d="M1454.49,215.62h-14.26v-88.04h14.26V215.62z"/>
					<path class="st1" d="M1474.48,171.18c0-7.09,0.84-13.34,2.51-18.76c1.67-5.41,3.99-9.99,6.95-13.74
						c2.96-3.74,6.45-6.65,10.46-8.72c4.01-2.07,8.39-3.3,13.15-3.7v11.95c-2.57,0.4-4.99,1.3-7.25,2.69
						c-2.26,1.39-4.25,3.4-5.96,6.03c-1.71,2.63-3.06,5.95-4.03,9.97c-0.98,4.02-1.5,8.78-1.58,14.28
						c0.08,5.58,0.6,10.35,1.58,14.34c0.97,3.98,2.32,7.33,4.03,10.03c1.71,2.71,3.72,4.78,6.02,6.21c2.3,1.43,4.69,2.31,7.19,2.63
						v11.71c-4.75-0.32-9.14-1.51-13.15-3.58c-4.01-2.07-7.5-4.98-10.46-8.72c-2.96-3.74-5.28-8.34-6.95-13.8
						C1475.31,184.54,1474.48,178.27,1474.48,171.18z M1524.61,144.54c-1.79-2.07-3.7-3.62-5.73-4.66
						c-2.03-1.03-4.21-1.63-6.54-1.79v-11.83c8.72,0.4,16.05,3.54,21.97,9.44L1524.61,144.54z M1512.34,204.39
						c2.34-0.24,4.54-0.88,6.6-1.91c2.06-1.03,3.95-2.55,5.67-4.54l9.7,8.72c-2.96,2.95-6.27,5.22-9.93,6.81
						c-3.66,1.59-7.67,2.51-12.04,2.75V204.39z"/>
					<path class="st1" d="M1568.91,215.62h-14.26v-88.04h14.26V215.62z"/>
					<path class="st1" d="M1651.18,127.58v9.8h-25.71v78.25h-14.14v-78.25h-25.71v-9.8H1651.18z"/>
					<path class="st1" d="M1679.46,127.58l12.97,34.28l-6.31,15.65l-22.67-49.93H1679.46z M1711.6,127.58h16.01l-25.59,52.2v35.84
						h-14.26v-29.39L1711.6,127.58z"/>
				</g>
			</g>
			<g>
				<path class="st1" d="M862.22,321c0-5.76,1.07-11.21,3.22-16.35c2.14-5.14,5.09-9.59,8.85-13.37c3.75-3.77,8.15-6.79,13.18-9.05
					c5.03-2.26,10.36-3.39,15.99-3.39h156.52c5.63,0,10.96,1.13,15.99,3.39c5.03,2.26,9.42,5.28,13.18,9.05
					c3.75,3.77,6.7,8.23,8.85,13.37c2.14,5.14,3.22,10.59,3.22,16.35v38.04h-41.24V321H903.46v210.58h156.52v-37.84h41.24v37.84
					c0,5.76-1.08,11.21-3.22,16.35c-2.15,5.14-5.1,9.63-8.85,13.47c-3.76,3.84-8.15,6.86-13.18,9.05
					c-5.03,2.19-10.36,3.29-15.99,3.29H903.46c-5.63,0-10.96-1.1-15.99-3.29c-5.03-2.19-9.42-5.21-13.18-9.05
					c-3.76-3.84-6.71-8.33-8.85-13.47c-2.15-5.14-3.22-10.59-3.22-16.35V321z"/>
				<path class="st1" d="M1414.87,278.84v294.9h-41.24V447.47h-165.17v126.27h-41.24v-294.9h41.24v126.47h165.17V278.84H1414.87z"/>
				<path class="st1" d="M1488.9,278.84h210.24V321h-168.99v84.32h144.25v42.16h-144.25v84.11h168.99v42.16H1488.9V278.84z"/>
				<path class="st1" d="M1760.9,321c0-5.76,1.07-11.21,3.22-16.35c2.14-5.14,5.09-9.59,8.85-13.37c3.75-3.77,8.15-6.79,13.18-9.05
					c5.03-2.26,10.36-3.39,15.99-3.39h156.52c5.63,0,10.96,1.13,15.99,3.39c5.03,2.26,9.42,5.28,13.18,9.05
					c3.75,3.77,6.7,8.23,8.85,13.37c2.14,5.14,3.22,10.59,3.22,16.35v38.04h-41.24V321h-156.52v210.58h156.52v-37.84h41.24v37.84
					c0,5.76-1.08,11.21-3.22,16.35c-2.15,5.14-5.1,9.63-8.85,13.47c-3.76,3.84-8.15,6.86-13.18,9.05
					c-5.03,2.19-10.36,3.29-15.99,3.29h-156.52c-5.63,0-10.96-1.1-15.99-3.29c-5.03-2.19-9.42-5.21-13.18-9.05
					c-3.76-3.84-6.71-8.33-8.85-13.47c-2.15-5.14-3.22-10.59-3.22-16.35V321z"/>
				<path class="st1" d="M2107.13,278.84v127.3l137.61-127.3h58.14l-156.12,144.57l162.35,150.33h-58.14l-143.85-132.64v132.64
					h-41.24v-294.9H2107.13z"/>
				<path class="st1" d="M2346.54,278.84h210.24V321h-168.99v84.32h144.25v42.16h-144.25v84.11h168.99v42.16h-210.24V278.84z"/>
				<path class="st1" d="M2846.48,384.13c0,41.13-17.17,64.57-51.5,70.33l54.32,119.28h-45.67l-53.52-117.84h-90.33v117.84h-41.24
					v-294.9h157.93c46.67,0,70.01,23.93,70.01,71.77V384.13z M2659.78,413.74h114.47c11,0,18.91-2.47,23.74-7.4
					s7.24-13.02,7.24-24.27v-29.41c0-11.24-2.41-19.33-7.24-24.27s-12.74-7.4-23.74-7.4h-114.47V413.74z"/>
			</g>
		</g>
	</g>
</g>
</svg>
